# xmcd
#
# Track frame offsets:
#   150
#   28410
#   49781
#   76418
#   90959
#   110961
#   143530
#   168370
#   190994
#   209558
#   234175
#   247636
#   260986
#   273256
#   286087
#   316284
#   330895
#   343538
#
# Disc length: 4763 seconds
#
# Revision: 0
# Processed by: cddbd v1.5.2PL0 Copyright (c) Steve Scherf et al.
# Submitted via: Click'N Design 3D 4.8
#
DISCID=f8129912
DTITLE=Variety Blues - Variety Artist's
DYEAR=1960
DGENRE=Blues
TTITLE0=Letter To My Baby PT. 2
TTITLE1=Bottoms Up Again
TTITLE2=Gittin What I Want
TTITLE3=Drowning In The Sea Of Love
TTITLE4=Stand Up In It (REMIX) 
TTITLE5=Let's Get It On
TTITLE6=Love Seat
TTITLE7=Little Brown Eye's
TTITLE8=I'm Giving It Up
TTITLE9=The Thrill Is Gone
TTITLE10=Get Down, Get Down (Get On The Floor)
TTITLE11=Power Of Love
TTITLE12=The Choking Kind
TTITLE13=Nine Pound Steel
TTITLE14=Come On Home
TTITLE15=Misty Blue
TTITLE16=(You Keep Me) Hangin' On
TTITLE17=Yours Love
EXTD=
EXTT0=
EXTT1=
EXTT2=
EXTT3=
EXTT4=
EXTT5=
EXTT6=
EXTT7=
EXTT8=
EXTT9=
EXTT10=
EXTT11=
EXTT12=
EXTT13=
EXTT14=
EXTT15=
EXTT16=
EXTT17=
PLAYORDER=
